<?xml version="1.0" encoding="UTF-8"?>
<!--Generator: Apple Native CoreSVG 175-->
<!DOCTYPE svg
PUBLIC "-//W3C//DTD SVG 1.1//EN"
       "http://www.w3.org/Graphics/SVG/1.1/DTD/svg11.dtd">
<svg version="1.1" xmlns="http://www.w3.org/2000/svg" xmlns:xlink="http://www.w3.org/1999/xlink" width="3300" height="2200">
 <!--glyph: "uni100926.medium", point size: 100.0, font version: "17.1d1e1", template writer version: "65.1"-->
 <g id="Notes">
  <rect height="2200" id="artboard" style="fill:white;opacity:1" width="3300" x="0" y="0"/>
  <line style="fill:none;stroke:black;opacity:1;stroke-width:0.5;" x1="263" x2="3036" y1="292" y2="292"/>
  <text style="stroke:none;fill:black;font-family:sans-serif;font-size:13;font-weight:bold;" transform="matrix(1 0 0 1 263 322)">Weight/Scale Variations</text>
  <text style="stroke:none;fill:black;font-family:sans-serif;font-size:13;text-anchor:middle;" transform="matrix(1 0 0 1 559.711 322)">Ultralight</text>
  <text style="stroke:none;fill:black;font-family:sans-serif;font-size:13;text-anchor:middle;" transform="matrix(1 0 0 1 856.422 322)">Thin</text>
  <text style="stroke:none;fill:black;font-family:sans-serif;font-size:13;text-anchor:middle;" transform="matrix(1 0 0 1 1153.13 322)">Light</text>
  <text style="stroke:none;fill:black;font-family:sans-serif;font-size:13;text-anchor:middle;" transform="matrix(1 0 0 1 1449.84 322)">Regular</text>
  <text style="stroke:none;fill:black;font-family:sans-serif;font-size:13;text-anchor:middle;" transform="matrix(1 0 0 1 1746.56 322)">Medium</text>
  <text style="stroke:none;fill:black;font-family:sans-serif;font-size:13;text-anchor:middle;" transform="matrix(1 0 0 1 2043.27 322)">Semibold</text>
  <text style="stroke:none;fill:black;font-family:sans-serif;font-size:13;text-anchor:middle;" transform="matrix(1 0 0 1 2339.98 322)">Bold</text>
  <text style="stroke:none;fill:black;font-family:sans-serif;font-size:13;text-anchor:middle;" transform="matrix(1 0 0 1 2636.69 322)">Heavy</text>
  <text style="stroke:none;fill:black;font-family:sans-serif;font-size:13;text-anchor:middle;" transform="matrix(1 0 0 1 2933.4 322)">Black</text>
  <line style="fill:none;stroke:black;opacity:1;stroke-width:0.5;" x1="263" x2="3036" y1="1903" y2="1903"/>
  <g transform="matrix(1 0 0 1 263 1933)">
   <path d="M9.24805 0.830078Q10.8691 0.830078 12.2949 0.214844Q13.7207-0.400391 14.8096-1.49414Q15.8984-2.58789 16.5186-4.01367Q17.1387-5.43945 17.1387-7.05078Q17.1387-8.66211 16.5186-10.0879Q15.8984-11.5137 14.8047-12.6074Q13.7109-13.7012 12.2852-14.3164Q10.8594-14.9316 9.23828-14.9316Q7.62695-14.9316 6.20117-14.3164Q4.77539-13.7012 3.69141-12.6074Q2.60742-11.5137 1.9873-10.0879Q1.36719-8.66211 1.36719-7.05078Q1.36719-5.43945 1.9873-4.01367Q2.60742-2.58789 3.69629-1.49414Q4.78516-0.400391 6.21094 0.214844Q7.63672 0.830078 9.24805 0.830078ZM9.24805-0.654297Q7.91992-0.654297 6.7627-1.14746Q5.60547-1.64062 4.73145-2.51953Q3.85742-3.39844 3.36426-4.56055Q2.87109-5.72266 2.87109-7.05078Q2.87109-8.37891 3.35938-9.54102Q3.84766-10.7031 4.72168-11.582Q5.5957-12.4609 6.75293-12.9541Q7.91016-13.4473 9.23828-13.4473Q10.5762-13.4473 11.7334-12.9541Q12.8906-12.4609 13.7695-11.582Q14.6484-10.7031 15.1465-9.54102Q15.6445-8.37891 15.6445-7.05078Q15.6445-5.72266 15.1514-4.56055Q14.6582-3.39844 13.7842-2.51953Q12.9102-1.64062 11.748-1.14746Q10.5859-0.654297 9.24805-0.654297ZM5.6543-7.05078Q5.6543-6.72852 5.85938-6.52832Q6.06445-6.32812 6.40625-6.32812L8.51562-6.32812L8.51562-4.20898Q8.51562-3.88672 8.71094-3.67676Q8.90625-3.4668 9.23828-3.4668Q9.56055-3.4668 9.77051-3.67676Q9.98047-3.88672 9.98047-4.20898L9.98047-6.32812L12.0898-6.32812Q12.4219-6.32812 12.627-6.52832Q12.832-6.72852 12.832-7.05078Q12.832-7.38281 12.627-7.58789Q12.4219-7.79297 12.0898-7.79297L9.98047-7.79297L9.98047-9.90234Q9.98047-10.2344 9.77051-10.4443Q9.56055-10.6543 9.23828-10.6543Q8.90625-10.6543 8.71094-10.4443Q8.51562-10.2344 8.51562-9.90234L8.51562-7.79297L6.40625-7.79297Q6.06445-7.79297 5.85938-7.58789Q5.6543-7.38281 5.6543-7.05078Z"/>
  </g>
  <g transform="matrix(1 0 0 1 281.867 1933)">
   <path d="M11.709 2.91016Q13.75 2.91016 15.5518 2.12891Q17.3535 1.34766 18.7305-0.0292969Q20.1074-1.40625 20.8887-3.20801Q21.6699-5.00977 21.6699-7.05078Q21.6699-9.0918 20.8887-10.8936Q20.1074-12.6953 18.7305-14.0723Q17.3535-15.4492 15.5469-16.2305Q13.7402-17.0117 11.6992-17.0117Q9.6582-17.0117 7.85645-16.2305Q6.05469-15.4492 4.68262-14.0723Q3.31055-12.6953 2.5293-10.8936Q1.74805-9.0918 1.74805-7.05078Q1.74805-5.00977 2.5293-3.20801Q3.31055-1.40625 4.6875-0.0292969Q6.06445 1.34766 7.86621 2.12891Q9.66797 2.91016 11.709 2.91016ZM11.709 1.25Q9.98047 1.25 8.47656 0.605469Q6.97266-0.0390625 5.83496-1.17676Q4.69727-2.31445 4.05762-3.81836Q3.41797-5.32227 3.41797-7.05078Q3.41797-8.7793 4.05762-10.2832Q4.69727-11.7871 5.83008-12.9297Q6.96289-14.0723 8.4668-14.7119Q9.9707-15.3516 11.6992-15.3516Q13.4277-15.3516 14.9316-14.7119Q16.4355-14.0723 17.5781-12.9297Q18.7207-11.7871 19.3652-10.2832Q20.0098-8.7793 20.0098-7.05078Q20.0098-5.32227 19.3701-3.81836Q18.7305-2.31445 17.5928-1.17676Q16.4551-0.0390625 14.9463 0.605469Q13.4375 1.25 11.709 1.25ZM7.17773-7.05078Q7.17773-6.69922 7.41211-6.47461Q7.64648-6.25 8.01758-6.25L10.8887-6.25L10.8887-3.36914Q10.8887-2.99805 11.1133-2.76855Q11.3379-2.53906 11.6895-2.53906Q12.0605-2.53906 12.29-2.76855Q12.5195-2.99805 12.5195-3.36914L12.5195-6.25L15.4004-6.25Q15.7715-6.25 16.001-6.47461Q16.2305-6.69922 16.2305-7.05078Q16.2305-7.42188 16.001-7.65137Q15.7715-7.88086 15.4004-7.88086L12.5195-7.88086L12.5195-10.752Q12.5195-11.1328 12.29-11.3623Q12.0605-11.5918 11.6895-11.5918Q11.3379-11.5918 11.1133-11.3574Q10.8887-11.123 10.8887-10.752L10.8887-7.88086L8.01758-7.88086Q7.63672-7.88086 7.40723-7.65137Q7.17773-7.42188 7.17773-7.05078Z"/>
  </g>
  <g transform="matrix(1 0 0 1 305.646 1933)">
   <path d="M14.9707 5.66406Q17.0605 5.66406 18.96 5.01465Q20.8594 4.36523 22.4512 3.19336Q24.043 2.02148 25.2197 0.429688Q26.3965-1.16211 27.0459-3.06641Q27.6953-4.9707 27.6953-7.05078Q27.6953-9.14062 27.0459-11.04Q26.3965-12.9395 25.2197-14.5312Q24.043-16.123 22.4512-17.2998Q20.8594-18.4766 18.9551-19.126Q17.0508-19.7754 14.9609-19.7754Q12.8711-19.7754 10.9717-19.126Q9.07227-18.4766 7.48535-17.2998Q5.89844-16.123 4.72168-14.5312Q3.54492-12.9395 2.90039-11.04Q2.25586-9.14062 2.25586-7.05078Q2.25586-4.9707 2.90527-3.06641Q3.55469-1.16211 4.72656 0.429688Q5.89844 2.02148 7.49023 3.19336Q9.08203 4.36523 10.9814 5.01465Q12.8809 5.66406 14.9707 5.66406ZM14.9707 3.84766Q13.1641 3.84766 11.5283 3.2959Q9.89258 2.74414 8.53516 1.74805Q7.17773 0.751953 6.17676-0.610352Q5.17578-1.97266 4.62891-3.6084Q4.08203-5.24414 4.08203-7.05078Q4.08203-8.86719 4.62891-10.5029Q5.17578-12.1387 6.17188-13.501Q7.16797-14.8633 8.52539-15.8594Q9.88281-16.8555 11.5186-17.4023Q13.1543-17.9492 14.9609-17.9492Q16.7773-17.9492 18.4131-17.4023Q20.0488-16.8555 21.4111-15.8594Q22.7734-14.8633 23.7695-13.501Q24.7656-12.1387 25.3174-10.5029Q25.8691-8.86719 25.8691-7.05078Q25.8789-5.24414 25.332-3.6084Q24.7852-1.97266 23.7842-0.610352Q22.7832 0.751953 21.4209 1.74805Q20.0586 2.74414 18.4229 3.2959Q16.7871 3.84766 14.9707 3.84766ZM9.19922-7.05078Q9.19922-6.66992 9.45801-6.4209Q9.7168-6.17188 10.1172-6.17188L14.0625-6.17188L14.0625-2.2168Q14.0625-1.81641 14.3115-1.55762Q14.5605-1.29883 14.9512-1.29883Q15.3516-1.29883 15.6104-1.55273Q15.8691-1.80664 15.8691-2.2168L15.8691-6.17188L19.8242-6.17188Q20.2246-6.17188 20.4785-6.4209Q20.7324-6.66992 20.7324-7.05078Q20.7324-7.46094 20.4785-7.71484Q20.2246-7.96875 19.8242-7.96875L15.8691-7.96875L15.8691-11.9141Q15.8691-12.3242 15.6104-12.583Q15.3516-12.8418 14.9512-12.8418Q14.5605-12.8418 14.3115-12.583Q14.0625-12.3242 14.0625-11.9141L14.0625-7.96875L10.1172-7.96875Q9.70703-7.96875 9.45312-7.71484Q9.19922-7.46094 9.19922-7.05078Z"/>
  </g>
  <text style="stroke:none;fill:black;font-family:sans-serif;font-size:13;font-weight:bold;" transform="matrix(1 0 0 1 263 1953)">Design Variations</text>
  <text style="stroke:none;fill:black;font-family:sans-serif;font-size:13;" transform="matrix(1 0 0 1 263 1971)">Symbols are supported in up to nine weights and three scales.</text>
  <text style="stroke:none;fill:black;font-family:sans-serif;font-size:13;" transform="matrix(1 0 0 1 263 1989)">For optimal layout with text and other symbols, vertically align</text>
  <text style="stroke:none;fill:black;font-family:sans-serif;font-size:13;" transform="matrix(1 0 0 1 263 2007)">symbols with the adjacent text.</text>
  <line style="fill:none;stroke:#00AEEF;stroke-width:0.5;opacity:1.0;" x1="776" x2="776" y1="1919" y2="1933"/>
  <g transform="matrix(1 0 0 1 776 1933)">
   <path d="M3.31055 0.15625Q3.70117 0.15625 3.91602-0.00976562Q4.13086-0.175781 4.26758-0.585938L5.52734-4.0332L11.2891-4.0332L12.5488-0.585938Q12.6855-0.175781 12.9004-0.00976562Q13.1152 0.15625 13.4961 0.15625Q13.8867 0.15625 14.1162-0.0585938Q14.3457-0.273438 14.3457-0.644531Q14.3457-0.869141 14.2383-1.17188L9.6582-13.3691Q9.48242-13.8184 9.17969-14.043Q8.87695-14.2676 8.4082-14.2676Q7.5-14.2676 7.17773-13.3789L2.59766-1.16211Q2.49023-0.859375 2.49023-0.634766Q2.49023-0.263672 2.70996-0.0537109Q2.92969 0.15625 3.31055 0.15625ZM6.00586-5.51758L8.37891-12.0898L8.42773-12.0898L10.8008-5.51758Z"/>
  </g>
  <line style="fill:none;stroke:#00AEEF;stroke-width:0.5;opacity:1.0;" x1="793.197" x2="793.197" y1="1919" y2="1933"/>
  <text style="stroke:none;fill:black;font-family:sans-serif;font-size:13;font-weight:bold;" transform="matrix(1 0 0 1 776 1953)">Margins</text>
  <text style="stroke:none;fill:black;font-family:sans-serif;font-size:13;" transform="matrix(1 0 0 1 776 1971)">Leading and trailing margins on the left and right side of each symbol</text>
  <text style="stroke:none;fill:black;font-family:sans-serif;font-size:13;" transform="matrix(1 0 0 1 776 1989)">can be adjusted by modifying the x-location of the margin guidelines.</text>
  <text style="stroke:none;fill:black;font-family:sans-serif;font-size:13;" transform="matrix(1 0 0 1 776 2007)">Modifications are automatically applied proportionally to all</text>
  <text style="stroke:none;fill:black;font-family:sans-serif;font-size:13;" transform="matrix(1 0 0 1 776 2025)">scales and weights.</text>
  <g transform="matrix(1 0 0 1 1289 1933)">
   <path d="M2.8418 1.86523L4.54102 3.57422Q5.18555 4.22852 5.90332 4.17969Q6.62109 4.13086 7.31445 3.35938L18.0078-8.42773L17.041-9.4043L6.42578 2.27539Q6.16211 2.57812 5.89355 2.61719Q5.625 2.65625 5.27344 2.30469L4.10156 1.14258Q3.75 0.791016 3.79395 0.522461Q3.83789 0.253906 4.14062-0.0195312L15.6152-10.8203L14.6387-11.7871L3.04688-0.898438Q2.30469-0.214844 2.25098 0.498047Q2.19727 1.21094 2.8418 1.86523ZM9.25781-16.3281Q8.94531-16.0254 8.90625-15.6348Q8.86719-15.2441 9.04297-14.9512Q9.21875-14.6777 9.55566-14.541Q9.89258-14.4043 10.3809-14.5215Q11.4746-14.7754 12.5977-14.7314Q13.7207-14.6875 14.7949-13.9844L14.209-12.5293Q13.9551-11.9043 14.0674-11.4404Q14.1797-10.9766 14.5801-10.5664L16.875-8.25195Q17.2363-7.88086 17.5781-7.82227Q17.9199-7.76367 18.3398-7.8418L19.4043-8.03711L20.0684-7.36328L20.0293-6.80664Q20-6.43555 20.1221-6.12305Q20.2441-5.81055 20.6055-5.44922L21.3672-4.70703Q21.7285-4.3457 22.1533-4.33105Q22.5781-4.31641 22.9297-4.66797L25.8398-7.58789Q26.1914-7.93945 26.1816-8.35449Q26.1719-8.76953 25.8105-9.13086L25.0391-9.89258Q24.6875-10.2539 24.3799-10.3857Q24.0723-10.5176 23.7109-10.4883L23.1348-10.4395L22.4902-11.0742L22.7344-12.1973Q22.832-12.6172 22.6953-12.9834Q22.5586-13.3496 22.1191-13.7891L19.9219-15.9766Q18.6719-17.2168 17.2607-17.8369Q15.8496-18.457 14.4189-18.4814Q12.9883-18.5059 11.665-17.959Q10.3418-17.4121 9.25781-16.3281ZM10.752-15.957Q11.6602-16.6211 12.7002-16.9043Q13.7402-17.1875 14.8047-17.085Q15.8691-16.9824 16.8701-16.5137Q17.8711-16.0449 18.7012-15.2051L21.1328-12.793Q21.3086-12.6172 21.3525-12.4512Q21.3965-12.2852 21.3379-12.0312L21.0156-10.5469L22.5195-9.0625L23.5059-9.12109Q23.6914-9.13086 23.7891-9.09668Q23.8867-9.0625 24.0332-8.91602L24.6094-8.33984L22.168-5.89844L21.5918-6.47461Q21.4453-6.62109 21.4062-6.71875Q21.3672-6.81641 21.377-7.01172L21.4453-7.98828L19.9512-9.47266L18.4277-9.21875Q18.1836-9.16992 18.042-9.2041Q17.9004-9.23828 17.7148-9.41406L15.7129-11.416Q15.5176-11.5918 15.4932-11.7529Q15.4688-11.9141 15.5859-12.1875L16.4648-14.2773Q15.293-15.3711 13.8281-15.791Q12.3633-16.2109 10.8398-15.7617Q10.7227-15.7324 10.6885-15.8057Q10.6543-15.8789 10.752-15.957Z"/>
  </g>
  <text style="stroke:none;fill:black;font-family:sans-serif;font-size:13;font-weight:bold;" transform="matrix(1 0 0 1 1289 1953)">Exporting</text>
  <text style="stroke:none;fill:black;font-family:sans-serif;font-size:13;" transform="matrix(1 0 0 1 1289 1971)">Symbols should be outlined when exporting to ensure the</text>
  <text style="stroke:none;fill:black;font-family:sans-serif;font-size:13;" transform="matrix(1 0 0 1 1289 1989)">design is preserved when submitting to Xcode.</text>
  <text id="template-version" style="stroke:none;fill:black;font-family:sans-serif;font-size:13;text-anchor:end;" transform="matrix(1 0 0 1 3036 1933)">Template v.3.0</text>
  <text style="stroke:none;fill:black;font-family:sans-serif;font-size:13;text-anchor:end;" transform="matrix(1 0 0 1 3036 1951)">Requires Xcode 13 or greater</text>
  <text id="descriptive-name" style="stroke:none;fill:black;font-family:sans-serif;font-size:13;text-anchor:end;" transform="matrix(1 0 0 1 3036 1969)">Generated from newspaper</text>
  <text style="stroke:none;fill:black;font-family:sans-serif;font-size:13;text-anchor:end;" transform="matrix(1 0 0 1 3036 1987)">Typeset at 100 points</text>
  <text style="stroke:none;fill:black;font-family:sans-serif;font-size:13;" transform="matrix(1 0 0 1 263 726)">Small</text>
  <text style="stroke:none;fill:black;font-family:sans-serif;font-size:13;" transform="matrix(1 0 0 1 263 1156)">Medium</text>
  <text style="stroke:none;fill:black;font-family:sans-serif;font-size:13;" transform="matrix(1 0 0 1 263 1586)">Large</text>
 </g>
 <g id="Guides">
  <g id="H-reference" style="fill:#27AAE1;stroke:none;" transform="matrix(1 0 0 1 339 696)">
   <path d="M0.993347 0L3.6377 0L29.3282-67.1326L30.0301-67.1326L30.0301-70.459L28.1227-70.459ZM11.6882-24.4797L46.9818-24.4797L46.2311-26.7288L12.4382-26.7288ZM55.1193 0L57.7637 0L30.6381-70.459L29.4327-70.459L29.4327-67.1326Z"/>
  </g>
  <line id="Baseline-S" style="fill:none;stroke:#27AAE1;opacity:1;stroke-width:0.5;" x1="263" x2="3036" y1="696" y2="696"/>
  <line id="Capline-S" style="fill:none;stroke:#27AAE1;opacity:1;stroke-width:0.5;" x1="263" x2="3036" y1="625.541" y2="625.541"/>
  <g id="H-reference" style="fill:#27AAE1;stroke:none;" transform="matrix(1 0 0 1 339 1126)">
   <path d="M0.993347 0L3.6377 0L29.3282-67.1326L30.0301-67.1326L30.0301-70.459L28.1227-70.459ZM11.6882-24.4797L46.9818-24.4797L46.2311-26.7288L12.4382-26.7288ZM55.1193 0L57.7637 0L30.6381-70.459L29.4327-70.459L29.4327-67.1326Z"/>
  </g>
  <line id="Baseline-M" style="fill:none;stroke:#27AAE1;opacity:1;stroke-width:0.5;" x1="263" x2="3036" y1="1126" y2="1126"/>
  <line id="Capline-M" style="fill:none;stroke:#27AAE1;opacity:1;stroke-width:0.5;" x1="263" x2="3036" y1="1055.54" y2="1055.54"/>
  <g id="H-reference" style="fill:#27AAE1;stroke:none;" transform="matrix(1 0 0 1 339 1556)">
   <path d="M0.993347 0L3.6377 0L29.3282-67.1326L30.0301-67.1326L30.0301-70.459L28.1227-70.459ZM11.6882-24.4797L46.9818-24.4797L46.2311-26.7288L12.4382-26.7288ZM55.1193 0L57.7637 0L30.6381-70.459L29.4327-70.459L29.4327-67.1326Z"/>
  </g>
  <line id="Baseline-L" style="fill:none;stroke:#27AAE1;opacity:1;stroke-width:0.5;" x1="263" x2="3036" y1="1556" y2="1556"/>
  <line id="Capline-L" style="fill:none;stroke:#27AAE1;opacity:1;stroke-width:0.5;" x1="263" x2="3036" y1="1485.54" y2="1485.54"/>
  <line id="left-margin-Ultralight-S" style="fill:none;stroke:#00AEEF;stroke-width:0.5;opacity:1.0;" x1="509.57" x2="509.57" y1="600.785" y2="720.121"/>
  <line id="right-margin-Ultralight-S" style="fill:none;stroke:#00AEEF;stroke-width:0.5;opacity:1.0;" x1="609.852" x2="609.852" y1="600.785" y2="720.121"/>
  <line id="left-margin-Regular-S" style="fill:none;stroke:#00AEEF;stroke-width:0.5;opacity:1.0;" x1="1395.89" x2="1395.89" y1="600.785" y2="720.121"/>
  <line id="right-margin-Regular-S" style="fill:none;stroke:#00AEEF;stroke-width:0.5;opacity:1.0;" x1="1503.8" x2="1503.8" y1="600.785" y2="720.121"/>
  <line id="left-margin-Black-S" style="fill:none;stroke:#00AEEF;stroke-width:0.5;opacity:1.0;" x1="2874.86" x2="2874.86" y1="600.785" y2="720.121"/>
  <line id="right-margin-Black-S" style="fill:none;stroke:#00AEEF;stroke-width:0.5;opacity:1.0;" x1="2991.94" x2="2991.94" y1="600.785" y2="720.121"/>
 </g>
 <g id="Symbols">
  <g id="Black-S" transform="matrix(1 0 0 1 2874.86 696)">
   <path d="M9.76562-7.08008Q9.76562-0.244141 14.502 3.95508Q19.2383 8.1543 27.002 8.1543L92.0898 8.1543Q99.2676 8.1543 103.296 4.12598Q107.324 0.0976562 107.324-7.08008L107.324-63.3301Q107.324-70.5078 103.296-74.5361Q99.2676-78.5645 92.0898-78.5645L45.3125-78.5645Q38.1348-78.5645 34.1064-74.5361Q30.0781-70.5078 30.0781-63.3301L30.0781-51.8066L25-51.8066Q17.8223-51.8066 13.7939-47.7783Q9.76562-43.75 9.76562-36.5723ZM23.9258-9.32617L23.9258-34.3262Q23.9258-35.8398 24.8291-36.7432Q25.7324-37.6465 27.2461-37.6465L30.0781-37.6465L30.0781-9.32617Q30.0781-7.8125 29.248-6.90918Q28.418-6.00586 27.002-6.00586Q25.6348-6.00586 24.7803-6.90918Q23.9258-7.8125 23.9258-9.32617ZM44.0918-6.00586Q44.2383-6.54297 44.2383-7.08008L44.2383-61.084Q44.2383-62.793 44.9951-63.5986Q45.752-64.4043 47.5586-64.4043L89.8438-64.4043Q91.6992-64.4043 92.4316-63.5986Q93.1641-62.793 93.1641-61.084L93.1641-9.32617Q93.1641-7.66602 92.4316-6.83594Q91.6992-6.00586 89.8438-6.00586ZM52.8809-49.6094L84.5215-49.6094Q85.9863-49.6094 87.0117-50.6348Q88.0371-51.6602 88.0371-53.125Q88.0371-54.5898 87.0361-55.5908Q86.0352-56.5918 84.5215-56.5918L52.8809-56.5918Q51.3672-56.5918 50.3662-55.5908Q49.3652-54.5898 49.3652-53.125Q49.3652-51.6602 50.3906-50.6348Q51.416-49.6094 52.8809-49.6094ZM52.8809-37.6465L84.5215-37.6465Q86.0352-37.6465 87.0361-38.6475Q88.0371-39.6484 88.0371-41.1133Q88.0371-42.5781 87.0117-43.6035Q85.9863-44.6289 84.5215-44.6289L52.8809-44.6289Q51.416-44.6289 50.3906-43.6035Q49.3652-42.5781 49.3652-41.1133Q49.3652-39.6484 50.3662-38.6475Q51.3672-37.6465 52.8809-37.6465ZM54.5898-14.3555L62.2559-14.3555Q64.6973-14.3555 66.1133-15.7959Q67.5293-17.2363 67.5293-19.6289L67.5293-27.3926Q67.5293-29.7852 66.1133-31.2012Q64.6973-32.6172 62.2559-32.6172L54.5898-32.6172Q52.1973-32.6172 50.7568-31.2012Q49.3164-29.7852 49.3164-27.3926L49.3164-19.6289Q49.3164-17.2363 50.7568-15.7959Q52.1973-14.3555 54.5898-14.3555ZM73.8281-25.6836L84.5215-25.6836Q85.9863-25.6836 86.9873-26.6846Q87.9883-27.6855 87.9883-29.1016Q87.9883-30.6152 86.9873-31.6162Q85.9863-32.6172 84.5215-32.6172L73.8281-32.6172Q72.3145-32.6172 71.3135-31.6162Q70.3125-30.6152 70.3125-29.1016Q70.3125-27.6855 71.3379-26.6846Q72.3633-25.6836 73.8281-25.6836ZM73.8281-14.3555L84.5215-14.3555Q85.9863-14.3555 86.9873-15.3564Q87.9883-16.3574 87.9883-17.8223Q87.9883-19.2871 86.9873-20.3125Q85.9863-21.3379 84.5215-21.3379L73.8281-21.3379Q72.3633-21.3379 71.3379-20.3125Q70.3125-19.2871 70.3125-17.8223Q70.3125-16.3574 71.3135-15.3564Q72.3145-14.3555 73.8281-14.3555Z"/>
  </g>
  <g id="Regular-S" transform="matrix(1 0 0 1 1395.89 696)">
   <path d="M9.76562-6.44531Q9.76562-0.244141 12.8174 2.83203Q15.8691 5.9082 22.0703 5.9082L85.6934 5.9082Q91.9434 5.9082 95.0439 2.85645Q98.1445-0.195312 98.1445-6.34766L98.1445-64.1602Q98.1445-70.3125 95.0439-73.3643Q91.9434-76.416 85.6934-76.416L39.7461-76.416Q33.4961-76.416 30.3955-73.3643Q27.2949-70.3125 27.2949-64.1602L27.2949-46.7773L18.0176-46.7773Q14.1113-46.7773 11.9385-44.751Q9.76562-42.7246 9.76562-39.1113ZM16.7969-6.39648L16.7969-37.6953Q16.7969-38.6719 17.334-39.209Q17.8711-39.7461 18.8477-39.7461L27.2949-39.7461L27.2949-6.39648Q27.2949-4.10156 25.7568-2.6123Q24.2188-1.12305 22.0703-1.12305Q19.873-1.12305 18.335-2.66113Q16.7969-4.19922 16.7969-6.39648ZM33.2031-1.12305Q34.3262-3.75977 34.3262-6.88477L34.3262-63.7695Q34.3262-66.5527 35.7666-67.9688Q37.207-69.3848 39.8438-69.3848L85.5957-69.3848Q88.2324-69.3848 89.6729-67.9688Q91.1133-66.5527 91.1133-63.7695L91.1133-6.73828Q91.1133-3.95508 89.6729-2.53906Q88.2324-1.12305 85.5957-1.12305ZM43.8965-53.0762L81.5918-53.0762Q82.7148-53.0762 83.4717-53.8574Q84.2285-54.6387 84.2285-55.7617Q84.2285-56.8359 83.4717-57.5928Q82.7148-58.3496 81.5918-58.3496L43.8965-58.3496Q42.7246-58.3496 41.9434-57.5928Q41.1621-56.8359 41.1621-55.7617Q41.1621-54.6387 41.9434-53.8574Q42.7246-53.0762 43.8965-53.0762ZM43.8965-39.7461L81.5918-39.7461Q82.7148-39.7461 83.4717-40.4785Q84.2285-41.2109 84.2285-42.334Q84.2285-43.457 83.4717-44.2383Q82.7148-45.0195 81.5918-45.0195L43.8965-45.0195Q42.7246-45.0195 41.9434-44.2383Q41.1621-43.457 41.1621-42.334Q41.1621-41.2109 41.9434-40.4785Q42.7246-39.7461 43.8965-39.7461ZM45.9961-12.6465L55.8594-12.6465Q58.1543-12.6465 59.4482-13.9404Q60.7422-15.2344 60.7422-17.4805L60.7422-26.8066Q60.7422-29.1016 59.4482-30.3711Q58.1543-31.6406 55.8594-31.6406L45.9961-31.6406Q43.75-31.6406 42.4561-30.3711Q41.1621-29.1016 41.1621-26.8066L41.1621-17.4805Q41.1621-15.2344 42.4561-13.9404Q43.75-12.6465 45.9961-12.6465ZM67.5293-26.3672L81.5918-26.3672Q82.7148-26.3672 83.4717-27.124Q84.2285-27.8809 84.2285-28.9551Q84.2285-30.0781 83.4717-30.8594Q82.7148-31.6406 81.5918-31.6406L67.5293-31.6406Q66.3574-31.6406 65.6006-30.8594Q64.8438-30.0781 64.8438-28.9551Q64.8438-27.8809 65.6006-27.124Q66.3574-26.3672 67.5293-26.3672ZM67.5293-12.6465L81.5918-12.6465Q82.7148-12.6465 83.4717-13.4033Q84.2285-14.1602 84.2285-15.2344Q84.2285-16.4062 83.4717-17.1875Q82.7148-17.9688 81.5918-17.9688L67.5293-17.9688Q66.3574-17.9688 65.6006-17.1875Q64.8438-16.4062 64.8438-15.2344Q64.8438-14.1602 65.6006-13.4033Q66.3574-12.6465 67.5293-12.6465Z"/>
  </g>
  <g id="Ultralight-S" transform="matrix(1 0 0 1 509.57 696)">
   <path d="M9.76562-2.94876Q9.76562 0.709534 11.8183 2.94571Q13.871 5.18188 17.8925 5.18188L80.5618 5.18188Q85.45 5.18188 87.9829 2.62947Q90.5159 0.0770569 90.5159-4.80347L90.5159-65.5228Q90.5159-70.4033 87.9829-72.9557Q85.45-75.5081 80.5618-75.5081L33.7975-75.5081Q28.9101-75.5081 26.3542-72.9557Q23.7984-70.4033 23.7984-65.5228L23.7984-43.3716L15.2931-43.3716Q12.7037-43.3716 11.2347-42.0265Q9.76562-40.6815 9.76562-38.2942ZM11.9835-3.0365L11.9835-38.1042Q11.9835-39.5348 12.8613-40.3671Q13.739-41.1995 15.2603-41.1995L23.7984-41.1995L23.7984-3.0365Q23.7984-0.377655 22.1695 1.29318Q20.5406 2.96402 17.8925 2.96402Q15.2412 2.96402 13.6124 1.28975Q11.9835-0.384521 11.9835-3.0365ZM23.8487 2.96402Q26.0162 0.826263 26.0162-2.97928L26.0162-65.4045Q26.0162-69.2772 28.0243-71.2837Q30.0323-73.2903 33.8951-73.2903L80.4642-73.2903Q84.3269-73.2903 86.335-71.2837Q88.343-69.2772 88.343-65.4045L88.343-4.92172Q88.343-1.04904 86.335 0.957489Q84.3269 2.96402 80.4642 2.96402ZM37.6297-55.3009L76.7784-55.3009Q77.2202-55.3009 77.5455-55.6057Q77.8709-55.9105 77.8709-56.3522Q77.8709-56.7902 77.5455-57.1159Q77.2202-57.4417 76.7784-57.4417L37.6297-57.4417Q37.1391-57.4417 36.8347-57.1159Q36.5303-56.7902 36.5303-56.3522Q36.5303-55.9105 36.8347-55.6057Q37.1391-55.3009 37.6297-55.3009ZM37.6297-41.1995L76.7784-41.1995Q77.2202-41.1995 77.5455-41.5005Q77.8709-41.8015 77.8709-42.2432Q77.8709-42.6849 77.5455-42.9893Q77.2202-43.2938 76.7784-43.2938L37.6297-43.2938Q37.1391-43.2938 36.8347-42.9893Q36.5303-42.6849 36.5303-42.2432Q36.5303-41.8015 36.8347-41.5005Q37.1391-41.1995 37.6297-41.1995ZM40.3656-12.9189L50.4105-12.9189Q52.2964-12.9189 53.4088-14.0312Q54.5212-15.1436 54.5212-16.9807L54.5212-25.1266Q54.5212-26.9676 53.4088-28.0781Q52.2964-29.1885 50.4105-29.1885L40.3656-29.1885Q38.5277-29.1885 37.4153-28.0781Q36.3029-26.9676 36.3029-25.1266L36.3029-16.9807Q36.3029-15.1436 37.4153-14.0312Q38.5277-12.9189 40.3656-12.9189ZM61.7172-27.0485L76.7326-27.0485Q77.1751-27.0485 77.5005-27.3739Q77.8259-27.6993 77.8259-28.138Q77.8259-28.5797 77.5005-28.8841Q77.1751-29.1885 76.7326-29.1885L61.7172-29.1885Q61.2717-29.1885 60.9463-28.8841Q60.6209-28.5797 60.6209-28.138Q60.6209-27.6993 60.9463-27.3739Q61.2717-27.0485 61.7172-27.0485ZM61.7172-12.9189L76.7326-12.9189Q77.1751-12.9189 77.5005-13.2217Q77.8259-13.5246 77.8259-13.9626Q77.8259-14.4081 77.5005-14.7354Q77.1751-15.0627 76.7326-15.0627L61.7172-15.0627Q61.2717-15.0627 60.9463-14.7354Q60.6209-14.4081 60.6209-13.9626Q60.6209-13.5246 60.9463-13.2217Q61.2717-12.9189 61.7172-12.9189Z"/>
  </g>
 </g>
</svg>
